<?xml version="1.0" encoding="UTF-8"?>
<!DOCTYPE svg PUBLIC "-//W3C//DTD SVG 1.1//EN" "http://www.w3.org/Graphics/SVG/1.1/DTD/svg11.dtd">
<!-- Creator: CorelDRAW 2021.5 -->
<svg xmlns="http://www.w3.org/2000/svg" xml:space="preserve" width="20.5442mm" height="18.234mm" version="1.1" style="shape-rendering:geometricPrecision; text-rendering:geometricPrecision; image-rendering:optimizeQuality; fill-rule:evenodd; clip-rule:evenodd"
viewBox="0 0 1184.22 1051.05"
 xmlns:xlink="http://www.w3.org/1999/xlink"
 xmlns:xodm="http://www.corel.com/coreldraw/odm/2003">
 <defs>
  <style type="text/css">
   <![CDATA[
    .fil2 {fill:url(#id0);fill-rule:nonzero}
    .fil1 {fill:url(#id1);fill-rule:nonzero}
    .fil0 {fill:url(#id2);fill-rule:nonzero}
   ]]>
  </style>
  <linearGradient id="id0" gradientUnits="userSpaceOnUse" x1="323" y1="347.34" x2="863.38" y2="32.86">
   <stop offset="0" style="stop-opacity:1; stop-color:#EF4081"/>
   <stop offset="1" style="stop-opacity:1; stop-color:#732A73"/>
  </linearGradient>
  <linearGradient id="id1" gradientUnits="userSpaceOnUse" xlink:href="#id0" x1="927.14" y1="900.21" x2="1053.21" y2="854.37">
  </linearGradient>
  <linearGradient id="id2" gradientUnits="userSpaceOnUse" xlink:href="#id0" x1="311.6" y1="900.3" x2="437.7" y2="854.45">
  </linearGradient>
 </defs>
 <g id="Слой_x0020_1">
  <metadata id="CorelCorpID_0Corel-Layer"/>
  <g id="_2219226385392">
   <path class="fil0" d="M491.3 934.19c0,-64.55 -52.32,-116.86 -116.86,-116.86 -64.54,0 -116.86,52.32 -116.86,116.86 0,64.54 52.33,116.86 116.86,116.86 64.55,0 116.86,-52.32 116.86,-116.86z"/>
   <path class="fil1" d="M1106.79 934.09c0,-64.52 -52.3,-116.83 -116.83,-116.83 -64.52,0 -116.83,52.3 -116.83,116.83 0,64.52 52.31,116.82 116.83,116.82 64.52,0 116.83,-52.3 116.83,-116.82z"/>
   <path class="fil2" d="M137.03 98.15c-0.41,-1.05 -1.39,-1.72 -2.47,-1.69l-91.37 -0.01c-1.42,0.01 -2.93,-0.16 -4.41,-0.51 -45.11,-10.83 -53.43,-70.06 -11.34,-90.94 7.21,-3.58 18.82,-5.24 34.82,-4.96 11.84,0.21 40.89,0.2 87.15,-0.03 30.34,-0.17 48.13,1.38 62.73,24.45 0.74,1.16 4.17,10.01 10.31,26.56 13.66,37.01 26.21,71.01 37.66,101.99 0.33,0.92 1.2,1.53 2.18,1.53 0,0 0,0 0,0 404.67,0.02 691.31,0.01 859.94,-0.03 14.31,0 23.75,0.74 28.33,2.22 18.17,5.86 31.46,22.19 33.54,41.3 0.53,4.83 -0.68,13.9 -3.64,27.19 -54.14,242.79 -82.72,371.64 -85.73,386.54 -3.33,16.47 -7.52,27.75 -12.55,33.85 -8.76,10.54 -18.96,16.5 -30.62,17.89 -320.35,38.42 -528.75,63.46 -625.19,75.11 -16.49,1.98 -27.86,1.73 -34.13,-0.77 -19,-7.63 -25.35,-18.86 -33.15,-39.98 -80.2,-216.6 -154.21,-416.5 -222.04,-599.72z"/>
  </g>
 </g>
</svg>
